<?xml version="1.0" standalone="no"?>
<!DOCTYPE svg PUBLIC "-//W3C//DTD SVG 20010904//EN"
 "http://www.w3.org/TR/2001/REC-SVG-20010904/DTD/svg10.dtd">
<svg version="1.0" xmlns="http://www.w3.org/2000/svg"
 width="300.000000pt" height="300.000000pt" viewBox="0 0 300.000000 300.000000"
 preserveAspectRatio="xMidYMid meet">
<metadata>
Created by potrace 1.11, written by Peter Selinger 2001-2013
</metadata>
<g transform="translate(0.000000,300.000000) scale(0.100000,-0.100000)"
fill="#000000" stroke="none">
<path d="M0 1500 l0 -1500 1500 0 1500 0 0 1500 0 1500 -1500 0 -1500 0 0
-1500z m1427 1305 c12 -3 48 -38 80 -76 90 -110 93 -113 174 -148 l77 -32 72
30 c40 17 80 31 90 31 25 0 91 -29 115 -50 32 -28 124 -65 136 -53 12 12 -9
65 -22 57 -5 -3 -9 2 -9 10 0 9 5 16 10 16 6 0 10 13 10 29 0 17 -4 33 -10 36
-21 13 -9 24 23 20 97 -11 158 -59 162 -129 3 -47 37 -102 88 -143 27 -22 48
-78 35 -91 -6 -6 -3 -21 9 -42 53 -93 81 -142 107 -184 21 -35 26 -50 17 -59
-18 -18 -13 -44 12 -64 13 -10 30 -31 39 -48 31 -58 73 -170 70 -187 -2 -10 2
-28 9 -40 7 -13 13 -53 13 -90 1 -58 -2 -68 -16 -68 -9 0 -20 -4 -23 -10 -8
-13 -71 -13 -96 0 -10 6 -19 19 -19 29 0 31 -23 40 -92 37 -58 -3 -70 -1 -102
22 -33 23 -40 25 -70 14 -18 -7 -42 -12 -54 -12 -13 0 -36 -18 -59 -45 -20
-25 -45 -45 -54 -45 -26 0 -69 -39 -69 -63 0 -20 -1 -19 -28 6 -18 17 -37 55
-53 103 -31 97 -64 134 -151 168 -37 14 -89 42 -115 62 -51 39 -101 64 -130
64 -21 0 -63 38 -63 57 0 22 -86 56 -124 49 -28 -5 -34 -2 -56 32 -14 20 -42
54 -62 74 -21 20 -38 44 -38 52 0 8 -12 23 -27 34 l-27 19 22 12 c24 13 30 41
10 41 -35 1 -38 14 -23 94 15 76 25 94 70 121 13 8 17 26 19 75 1 36 5 70 9
76 4 7 6 23 5 35 -1 13 11 61 26 107 22 65 31 82 44 78 10 -2 27 -7 39 -11z
m-107 -1225 l0 -60 -89 0 -89 0 -4 -277 c-6 -333 -11 -357 -92 -439 -71 -70
-148 -96 -291 -97 -159 -1 -263 33 -337 110 -32 33 -86 130 -76 137 1 2 28 13
58 24 30 11 63 23 73 27 11 5 17 2 17 -7 0 -35 60 -108 112 -135 47 -24 64
-27 148 -28 105 0 144 14 183 67 29 39 35 103 36 376 l1 242 -175 0 -175 0 0
60 0 60 350 0 350 0 0 -60z m80 -55 l0 -85 -90 0 -90 0 0 -218 c0 -120 -5
-245 -11 -277 -37 -200 -201 -315 -449 -315 -132 0 -235 30 -303 86 -37 31
-32 30 44 -6 44 -20 94 -33 161 -42 228 -28 413 42 483 186 33 69 45 173 45
424 l0 192 90 0 90 0 0 70 c0 56 3 70 15 70 12 0 15 -16 15 -85z m-460 -70 c0
-13 -22 -15 -140 -15 -118 0 -140 2 -140 15 0 13 22 15 140 15 118 0 140 -2
140 -15z m1420 -305 l0 -60 -89 0 -89 0 -4 -277 c-6 -333 -11 -357 -92 -439
-71 -70 -148 -96 -291 -97 -159 -1 -263 33 -337 110 -32 33 -86 130 -76 137 1
2 28 13 58 24 30 11 63 23 73 27 11 5 17 2 17 -7 0 -35 60 -108 112 -135 47
-24 64 -27 148 -28 105 0 144 14 183 67 29 39 35 103 36 376 l1 242 -175 0
-175 0 0 60 0 60 350 0 350 0 0 -60z m80 -55 l0 -85 -90 0 -90 0 0 -218 c0
-120 -5 -245 -11 -277 -37 -200 -201 -315 -449 -315 -132 0 -235 30 -303 86
-37 31 -32 30 44 -6 44 -20 94 -33 161 -42 228 -28 413 42 483 186 33 69 45
173 45 424 l0 192 90 0 90 0 0 70 c0 56 3 70 15 70 12 0 15 -16 15 -85z m-460
-70 c0 -13 -22 -15 -140 -15 -118 0 -140 2 -140 15 0 13 22 15 140 15 118 0
140 -2 140 -15z m-1310 -124 c44 -26 19 -27 -36 -2 -46 21 -93 76 -72 84 7 3
27 -10 43 -29 17 -18 46 -42 65 -53z m1040 -430 c44 -26 19 -27 -36 -2 -46 21
-93 76 -72 84 7 3 27 -10 43 -29 17 -18 46 -42 65 -53z"/>
<path d="M1522 2579 c-61 -12 -139 -57 -177 -104 -50 -60 -70 -119 -69 -200 0
-82 33 -161 85 -210 17 -17 30 -25 27 -20 -2 6 -13 28 -24 50 -14 30 -19 61
-19 120 1 94 20 140 84 198 56 50 104 69 181 70 109 0 199 -53 246 -144 13
-27 26 -49 28 -49 2 0 0 17 -4 38 -32 167 -195 282 -358 251z"/>
<path d="M1646 2185 c-17 -55 -17 -55 -59 -57 -23 0 -50 -1 -59 0 -29 3 -20
-11 27 -43 50 -34 51 -36 30 -95 -22 -61 -19 -65 23 -33 60 48 60 48 108 13
25 -18 47 -30 50 -28 2 3 -3 24 -11 48 -8 23 -15 48 -15 54 1 6 22 27 48 46
l47 35 -65 5 -65 5 -16 47 c-8 26 -18 50 -20 53 -3 3 -13 -20 -23 -50z"/>
</g>
</svg>
